<svg width="46" height="45" viewBox="0 0 46 45" fill="none" xmlns="http://www.w3.org/2000/svg">
<path fill-rule="evenodd" clip-rule="evenodd" d="M15.9793 18.8252C16.48 18.3669 17.2918 18.3669 17.7924 18.8252C17.9794 18.9964 18.1625 19.1637 18.3417 19.3276C21.7678 22.4596 23.7967 24.3143 24.8242 26.9481C25.3648 28.3338 25.6151 29.8851 25.7382 31.8683C25.8605 33.8382 25.8605 36.3157 25.8605 39.5693V39.6079C25.8605 40.2562 25.2865 40.7816 24.5784 40.7816C23.8703 40.7816 23.2963 40.2562 23.2963 39.6079C23.2963 36.3079 23.2958 33.897 23.1782 32.0015C23.0609 30.1116 22.8304 28.8166 22.4094 27.7376C21.5802 25.612 19.9609 24.1297 16.1545 20.6454C16.0966 20.5924 16.0382 20.539 15.9793 20.4851C15.4786 20.0267 15.4786 19.2836 15.9793 18.8252Z" fill="white"/>
<path fill-rule="evenodd" clip-rule="evenodd" d="M32.1182 13.2308C32.4533 13.8018 32.2193 14.5134 31.5955 14.8202C30.5179 15.3501 29.1055 16.365 27.9403 19.822C26.7509 23.3507 25.8605 29.3157 25.8605 39.6075C25.8605 40.2557 25.2865 40.7812 24.5784 40.7812C23.8703 40.7812 23.2963 40.2557 23.2963 39.6075C23.2963 29.2423 24.1865 22.9973 25.4901 19.1299C26.8178 15.1908 28.6106 13.6235 30.3821 12.7523C31.0058 12.4455 31.7831 12.6598 32.1182 13.2308Z" fill="white"/>
<path fill-rule="evenodd" clip-rule="evenodd" d="M28.1034 9.67272C25.3072 11.8324 23.7044 14.6203 23.2645 16.3936C23.1076 17.0257 22.4207 17.4218 21.7303 17.2782C21.0398 17.1346 20.6071 16.5058 20.764 15.8737C21.3341 13.5757 23.2513 10.3491 26.4498 7.8786C29.6917 5.37461 34.2871 3.62153 40.1496 4.40915C40.8501 4.50327 41.3347 5.09948 41.2319 5.74083C41.1291 6.38217 40.4778 6.82578 39.7772 6.73166C34.7303 6.05361 30.8562 7.54649 28.1034 9.67272Z" fill="white"/>
<path fill-rule="evenodd" clip-rule="evenodd" d="M39.6515 4.40946C40.3518 4.31394 41.0041 4.75625 41.1085 5.39738C41.5258 7.96158 41.1367 11.3669 39.8411 14.3908C38.5492 17.4061 36.2536 20.2622 32.6767 21.3549C32.005 21.56 31.2788 21.2279 31.0547 20.613C30.8306 19.9981 31.1934 19.3333 31.8651 19.1282C34.4359 18.3429 36.307 16.2108 37.454 13.5337C38.5973 10.8652 38.9191 7.87388 38.5723 5.74329C38.468 5.10215 38.9511 4.50498 39.6515 4.40946Z" fill="white"/>
<path fill-rule="evenodd" clip-rule="evenodd" d="M16.8632 12.3868C18.6356 13.1928 19.6973 14.7362 20.872 16.5728C21.2361 17.1421 22.0373 17.3763 22.6616 17.0959C23.2858 16.8156 23.4967 16.1268 23.1326 15.5575L23.1207 15.5389C22.0129 13.8068 20.5783 11.5639 17.9346 10.3616C15.2088 9.122 11.5905 9.13332 6.44534 10.971C5.79339 11.2038 5.51766 11.8711 5.82946 12.4614C6.14127 13.0517 6.92256 13.3415 7.57451 13.1086C12.4275 11.3753 15.1633 11.6138 16.8632 12.3868Z" fill="white"/>
<path fill-rule="evenodd" clip-rule="evenodd" d="M6.71913 10.7989C6.00914 10.8731 5.54289 11.4442 5.67772 12.0744C5.72982 12.3179 5.78599 12.5923 5.84747 12.8926C6.26024 14.909 6.91237 18.0948 8.17819 20.9499C9.59651 24.1489 12.0691 27.5542 16.4682 27.8426C17.1909 27.89 17.7793 27.4154 17.7824 26.7826C17.7856 26.1498 17.2023 25.5984 16.4796 25.551C13.8486 25.3785 11.9807 23.3446 10.6087 20.25C9.44974 17.636 8.84768 14.7076 8.42912 12.6717C8.36518 12.3607 8.30552 12.0705 8.24882 11.8055C8.11399 11.1753 7.42912 10.7246 6.71913 10.7989Z" fill="white"/>
</svg>
