<svg width="101" height="101" viewBox="0 0 101 101" fill="none" xmlns="http://www.w3.org/2000/svg">
<path fill-rule="evenodd" clip-rule="evenodd" d="M34.6763 42.3329C35.7889 41.3143 37.5928 41.3143 38.7055 42.3329C39.1209 42.7132 39.5278 43.0852 39.9261 43.4493C47.5397 50.4093 52.0483 54.5309 54.3316 60.3837C55.533 63.4631 56.0892 66.9104 56.3627 71.3176C56.6344 75.6952 56.6344 81.2006 56.6344 88.4309V88.5168C56.6344 89.9572 55.3588 91.125 53.7853 91.125C52.2118 91.125 50.9363 89.9572 50.9363 88.5168C50.9363 81.1834 50.9352 75.8258 50.6737 71.6135C50.4131 67.4137 49.9009 64.536 48.9654 62.1382C47.1226 57.4146 43.5242 54.1207 35.0656 46.3778C34.9369 46.2601 34.8072 46.1413 34.6763 46.0215C33.5636 45.0029 33.5636 43.3515 34.6763 42.3329Z" fill="black"/>
<path fill-rule="evenodd" clip-rule="evenodd" d="M70.5406 29.9019C71.2852 31.1708 70.7652 32.7521 69.379 33.4338C66.9843 34.6116 63.8456 36.8667 61.2562 44.549C58.6131 52.3905 56.6344 65.6461 56.6344 88.5168C56.6344 89.9573 55.3589 91.125 53.7854 91.125C52.2119 91.125 50.9363 89.9573 50.9363 88.5168C50.9363 65.483 52.9146 51.6051 55.8114 43.0109C58.7619 34.2574 62.7459 30.7745 66.6824 28.8385C68.0686 28.1568 69.7959 28.6329 70.5406 29.9019Z" fill="black"/>
<path fill-rule="evenodd" clip-rule="evenodd" d="M61.6185 21.9949C55.4049 26.7943 51.8431 32.9896 50.8654 36.9303C50.5169 38.335 48.9905 39.215 47.4561 38.896C45.9217 38.5769 44.9603 37.1796 45.3088 35.7749C46.5758 30.6681 50.8361 23.498 57.9441 18.008C65.1483 12.4436 75.3603 8.54785 88.3879 10.2981C89.9447 10.5073 91.0216 11.8322 90.7931 13.2574C90.5646 14.6826 89.1173 15.6684 87.5605 15.4593C76.3451 13.9525 67.7359 17.27 61.6185 21.9949Z" fill="#349D2B"/>
<path fill-rule="evenodd" clip-rule="evenodd" d="M87.281 10.299C88.8374 10.0867 90.287 11.0696 90.5189 12.4944C91.4462 18.1926 90.5815 25.76 87.7025 32.4798C84.8316 39.1805 79.7302 45.5274 71.7815 47.9555C70.2889 48.4114 68.6752 47.6733 68.1772 46.3069C67.6791 44.9405 68.4854 43.4632 69.978 43.0072C75.6908 41.2621 79.8489 36.5242 82.3977 30.5751C84.9384 24.645 85.6534 17.9977 84.8829 13.263C84.651 11.8383 85.7247 10.5112 87.281 10.299Z" fill="#349D2B"/>
<path fill-rule="evenodd" clip-rule="evenodd" d="M36.6405 28.027C40.5791 29.8182 42.9384 33.2479 45.5489 37.3293C46.358 38.5943 48.1385 39.1148 49.5257 38.4917C50.9129 37.8687 51.3816 36.3381 50.5725 35.073L50.546 35.0316C48.0842 31.1826 44.8962 26.1982 39.0213 23.5265C32.9641 20.7719 24.9234 20.797 13.4897 24.8807C12.0409 25.3982 11.4281 26.881 12.121 28.1928C12.8139 29.5046 14.5501 30.1485 15.9989 29.6311C26.7834 25.7793 32.863 26.3091 36.6405 28.027Z" fill="#349D2B"/>
<path fill-rule="evenodd" clip-rule="evenodd" d="M14.0981 24.4976C12.5204 24.6627 11.4842 25.9317 11.7839 27.3322C11.8996 27.8733 12.0245 28.483 12.1611 29.1505C13.0783 33.6314 14.5275 40.7108 17.3405 47.0554C20.4923 54.1644 25.9869 61.7317 35.7628 62.3726C37.3687 62.4779 38.6763 61.4233 38.6832 60.0171C38.6902 58.6109 37.394 57.3856 35.7881 57.2803C29.9413 56.897 25.7905 52.377 22.7415 45.5001C20.1661 39.6913 18.8282 33.1837 17.8981 28.6595C17.756 27.9684 17.6234 27.3236 17.4974 26.7346C17.1978 25.3342 15.6759 24.3326 14.0981 24.4976Z" fill="#349D2B"/>
</svg>
