<svg width="41" height="41" viewBox="0 0 41 41" fill="none" xmlns="http://www.w3.org/2000/svg">
<g clip-path="url(#clip0_430_7746)">
<path d="M5.60021 6.36946C5.03238 5.88901 4.20793 6.00033 3.76021 6.60969C3.31249 7.21905 3.41623 8.1038 3.98407 8.58426L36.307 35.7712C36.8748 36.2516 37.6993 36.1403 38.147 35.5309C38.5947 34.9216 38.491 34.0368 37.9231 33.5564L30.1973 27.0585L35.1386 21.7558C38.2234 18.4454 38.2234 13.0842 35.1386 9.77369C32.4086 6.84406 28.1061 6.46321 24.9667 8.87136L24.8793 8.93581C24.0931 9.53932 23.9129 10.7112 24.4753 11.549C25.0376 12.3869 26.1296 12.5861 26.9104 11.9826L26.9978 11.9182C28.7504 10.5764 31.1473 10.7873 32.6652 12.4221C34.3851 14.2677 34.3851 17.2559 32.6652 19.1016L27.4236 24.7265L25.6819 23.2617C27.0087 20.1094 26.419 16.3302 24.0658 13.8048C21.2157 10.7405 16.7221 10.512 13.6209 13.1193L5.60021 6.36946ZM16.531 15.5626C18.1745 14.6896 20.2274 14.9826 21.5979 16.4591C22.6899 17.6309 23.0994 19.2891 22.7827 20.8242L16.531 15.5626ZM9.84806 17.0802L6.76864 20.3848C3.68377 23.6953 3.68377 29.0565 6.76864 32.3669C9.49862 35.2966 13.8011 35.6774 16.9405 33.2693L17.0279 33.2048C17.8141 32.6013 17.9943 31.4295 17.4319 30.5916C16.8696 29.7537 15.7776 29.5545 14.9968 30.158L14.9094 30.2225C13.1568 31.5642 10.7599 31.3533 9.242 29.7186C7.52212 27.867 7.52212 24.8788 9.242 23.0332L12.6163 19.4121L9.85352 17.0743L9.84806 17.0802ZM15.5428 21.8906C15.4281 24.2226 16.2089 26.5839 17.8469 28.3358C19.9708 30.615 23.0011 31.324 25.6874 30.4627L15.5428 21.8906Z" fill="#EF4444"/>
</g>
<defs>
<clipPath id="clip0_430_7746">
<rect width="40" height="40" fill="white" transform="translate(0.453613 0.164062)"/>
</clipPath>
</defs>
</svg>
